<svg width="31" height="31" xmlns="http://www.w3.org/2000/svg" xmlns:xlink="http://www.w3.org/1999/xlink" xmlns:svgjs="http://svgjs.com/svgjs"><svg xmlns="http://www.w3.org/2000/svg" width="31" height="31" viewBox="1 2 30 30" fill="#fff"><path fill="#FFF" paint-order="stroke fill markers" fill-rule="evenodd" d="M31 26c0 .652-.419 1.201-1 1.408v1.683A1.496 1.496 0 1 1 28.092 31h-1.684c-.207.58-.756 1-1.408 1a1.495 1.495 0 0 1-1.408-1h-1.684c-.207.58-.756 1-1.408 1a1.495 1.495 0 0 1-1.408-1h-1.684c-.206.58-.756 1-1.408 1a1.495 1.495 0 0 1-1.408-1h-1.684c-.207.58-.756 1-1.408 1a1.495 1.495 0 0 1-1.408-1H8.408c-.206.58-.756 1-1.408 1a1.495 1.495 0 0 1-1.408-1H3.908A1.495 1.495 0 0 1 1 30.5c0-.652.419-1.202 1-1.409v-1.683c-.581-.207-1-.756-1-1.409 0-.652.419-1.201 1-1.407v-1.684c-.581-.207-1-.757-1-1.408 0-.652.419-1.202 1-1.409v-1.683c-.581-.207-1-.756-1-1.408 0-.653.419-1.202 1-1.409v-1.684c-.581-.206-1-.755-1-1.407s.419-1.202 1-1.408V9.408c-.581-.207-1-.756-1-1.409 0-.652.419-1.201 1-1.407V4.908a1.496 1.496 0 1 1 1.908-1.909h1.684c.206-.58.756-1 1.408-1 .652 0 1.202.42 1.408 1h1.684c.206-.58.756-1 1.408-1 .652 0 1.201.42 1.408 1h1.684c.206-.58.756-1 1.408-1 .652 0 1.202.42 1.408 1h1.684c.206-.58.756-1 1.408-1 .652 0 1.201.42 1.408 1h1.684c.206-.58.756-1 1.408-1 .652 0 1.201.42 1.408 1h1.684A1.495 1.495 0 0 1 31 3.5c0 .652-.419 1.202-1 1.409v1.684c.581.206 1 .755 1 1.407 0 .653-.419 1.202-1 1.409v1.684c.581.206 1 .756 1 1.408 0 .652-.419 1.201-1 1.407v1.684c.581.207 1 .756 1 1.409 0 .652-.419 1.201-1 1.408v1.683c.581.207 1 .757 1 1.409 0 .651-.419 1.201-1 1.408v1.684c.581.206 1 .755 1 1.407zM27 6H5v22h22V6zM14 22l7-8.5 4.5 7v6h-19l6-6L14 22zm-3-7a3 3 0 1 1 0-6 3 3 0 0 1 0 6z"/></svg></svg>